<svg width="200" height="200" viewBox="0 0 200 200" xmlns="http://www.w3.org/2000/svg">
  <!-- Okrąg tła -->
  <circle cx="100" cy="100" r="95" fill="#D2691E" stroke="#8B4513" stroke-width="5"/>
  <circle cx="100" cy="100" r="75" fill="#8B4513"/>
  
  <!-- Szef kuchni - głowa -->
  <circle cx="100" cy="100" r="35" fill="#F5DEB3"/>
  
  <!-- Czapka kucharska -->
  <ellipse cx="100" cy="70" rx="30" ry="15" fill="white"/>
  <rect x="75" y="65" width="50" height="15" fill="white"/>
  
  <!-- Oczy -->
  <circle cx="90" cy="95" r="5" fill="#4169E1"/>
  <circle cx="110" cy="95" r="5" fill="#4169E1"/>
  
  <!-- Wąsy -->
  <path d="M 80,110 Q 85,115 90,110" stroke="#8B4513" stroke-width="3" fill="none"/>
  <path d="M 110,110 Q 115,115 120,110" stroke="#8B4513" stroke-width="3" fill="none"/>
  
  <!-- Uśmiech -->
  <path d="M 85,115 Q 100,125 115,115" stroke="#8B4513" stroke-width="2" fill="none"/>
  
  <!-- Kciuk w górę -->
  <circle cx="145" cy="120" r="12" fill="#F5DEB3"/>
  <rect x="140" y="125" width="10" height="20" fill="#F5DEB3"/>
  
  <!-- Gwiazdy -->
  <text x="40" y="170" font-size="20" fill="#FFD700">★</text>
  <text x="60" y="175" font-size="20" fill="#FFD700">★</text>
  <text x="80" y="178" font-size="20" fill="#FFD700">★</text>
  <text x="120" y="178" font-size="20" fill="#FFD700">★</text>
  <text x="140" y="175" font-size="20" fill="#FFD700">★</text>
  <text x="160" y="170" font-size="20" fill="#FFD700">★</text>
</svg>
